<svg xmlns="http://www.w3.org/2000/svg" xmlns:xlink="http://www.w3.org/1999/xlink" width="106" height="106" viewBox="0 0 106 106">
  <defs>
    <filter id="Ellipse_9667">
      <feOffset input="SourceAlpha"/>
      <feGaussianBlur stdDeviation="3" result="blur"/>
      <feFlood flood-color="#c5e2f8" result="color"/>
      <feComposite operator="out" in="SourceGraphic" in2="blur"/>
      <feComposite operator="in" in="color"/>
      <feComposite operator="in" in2="SourceGraphic"/>
    </filter>
  </defs>
  <g id="Group_77157" data-name="Group 77157" transform="translate(-935 -990)">
    <g data-type="innerShadowGroup">
      <circle id="Ellipse_9667-2" data-name="Ellipse 9667" cx="53" cy="53" r="53" transform="translate(935 990)" fill="#fff"/>
      <g transform="matrix(1, 0, 0, 1, 935, 990)" filter="url(#Ellipse_9667)">
        <circle id="Ellipse_9667-3" data-name="Ellipse 9667" cx="53" cy="53" r="53" transform="translate(0)" fill="#fff"/>
      </g>
      <g id="Ellipse_9667-4" data-name="Ellipse 9667" transform="translate(935 990)" fill="none" stroke="#d9ebf9" stroke-width="1">
        <circle cx="53" cy="53" r="53" stroke="none"/>
        <circle cx="53" cy="53" r="52.5" fill="none"/>
      </g>
    </g>
    <g id="train-cargo" transform="translate(955.743 1011.893)">
      <g id="Group_77127" data-name="Group 77127" transform="translate(11.698 4.3)">
        <path id="Path_301072" data-name="Path 301072" d="M40.343,50.944H23.336a14.007,14.007,0,0,1-3.481-.5h-.1A11.645,11.645,0,0,1,11.7,39.407V11.461A7.131,7.131,0,0,1,18.861,4.3H44.619a7.131,7.131,0,0,1,7.161,7.161V39.407A11.385,11.385,0,0,1,40.343,50.944Zm-19.99-2.486h0a10.416,10.416,0,0,0,2.984.5H40.343a9.24,9.24,0,0,0,2.884-.5,9.49,9.49,0,0,0,6.663-9.05V11.461a5.136,5.136,0,0,0-5.172-5.172H19.06a5.136,5.136,0,0,0-5.172,5.172V39.407a9.4,9.4,0,0,0,6.464,9.05Z" transform="translate(-11.7 -4.3)"/>
      </g>
      <g id="Group_77130" data-name="Group 77130" transform="translate(17.565 36.026)">
        <g id="Group_77128" data-name="Group 77128">
          <path id="Path_301073" data-name="Path 301073" d="M21.777,44.554a4.177,4.177,0,1,1,4.177-4.177A4.2,4.2,0,0,1,21.777,44.554Zm0-6.266a2.188,2.188,0,1,0,2.188,2.188A2.145,2.145,0,0,0,21.777,38.289Z" transform="translate(-17.6 -36.2)" fill="#2196f3"/>
        </g>
        <g id="Group_77129" data-name="Group 77129" transform="translate(20.288)">
          <path id="Path_301074" data-name="Path 301074" d="M42.177,44.554a4.177,4.177,0,1,1,4.177-4.177A4.338,4.338,0,0,1,42.177,44.554Zm0-6.266a2.188,2.188,0,1,0,2.188,2.188A2.273,2.273,0,0,0,42.177,38.289Z" transform="translate(-38 -36.2)" fill="#2196f3"/>
        </g>
      </g>
      <g id="Group_77131" data-name="Group 77131" transform="translate(17.366 11.461)">
        <path id="Path_301075" data-name="Path 301075" d="M31.92,27.413A38.24,38.24,0,0,1,18.1,24.926a.955.955,0,0,1-.7-.9V12.495a.94.94,0,0,1,.995-.995H45.346a.94.94,0,0,1,.995.995V23.932a.955.955,0,0,1-.7.9A35.816,35.816,0,0,1,31.92,27.413ZM19.389,23.335a37.5,37.5,0,0,0,12.432,2.089h.1a38.523,38.523,0,0,0,12.531-2.089V13.589H19.389Z" transform="translate(-17.4 -11.5)"/>
      </g>
      <g id="Group_77132" data-name="Group 77132" transform="translate(30.992 12.157)">
        <path id="Path_301076" data-name="Path 301076" d="M31.1,12.2h1.989V26.123H31.1Z" transform="translate(-31.1 -12.2)"/>
      </g>
      <g id="Group_77133" data-name="Group 77133" transform="translate(11.261 48.457)">
        <path id="Path_301077" data-name="Path 301077" d="M17.665,62.126h-5.37a1.044,1.044,0,0,1-.9-.5.765.765,0,0,1,.1-.995L19.355,49.1a.9.9,0,0,1,.8-.4v.995l.8.6-6.862,9.945h2.984L24.527,49.6l1.591,1.193L18.361,61.828a.774.774,0,0,1-.7.3Z" transform="translate(-11.261 -48.7)"/>
      </g>
      <g id="Group_77134" data-name="Group 77134" transform="translate(38.55 48.358)">
        <path id="Path_301078" data-name="Path 301078" d="M52.623,62.126h-5.37a1.228,1.228,0,0,1-.8-.4L38.7,50.689,40.291,49.5,47.75,60.137h2.984L44.17,50.589h-.4V48.6h.995a1.228,1.228,0,0,1,.8.4l7.857,11.537a1.177,1.177,0,0,1,.1.995A1.063,1.063,0,0,1,52.623,62.126Z" transform="translate(-38.7 -48.6)"/>
      </g>
      <g id="Group_77135" data-name="Group 77135" transform="translate(19.455 57.309)">
        <path id="Path_301079" data-name="Path 301079" d="M19.5,57.6H45.159v1.989H19.5Z" transform="translate(-19.5 -57.6)"/>
      </g>
      <g id="Group_77136" data-name="Group 77136" transform="translate(22.339 53.231)">
        <path id="Path_301080" data-name="Path 301080" d="M22.4,53.5H42.39v1.989H22.4Z" transform="translate(-22.4 -53.5)"/>
      </g>
    </g>
  </g>
</svg>
